<?xml version="1.0" encoding="UTF-8" standalone="no"?>
<!DOCTYPE svg PUBLIC "-//W3C//DTD SVG 1.1//EN"
 "http://www.w3.org/Graphics/SVG/1.1/DTD/svg11.dtd">
<!-- Generated by graphviz version 2.28.0 (20130712.2238)
 -->
<!-- Title: snakemake_dag Pages: 1 -->
<svg width="461pt" height="620pt"
 viewBox="0.00 0.00 461.00 620.00" xmlns="http://www.w3.org/2000/svg" xmlns:xlink="http://www.w3.org/1999/xlink">
<g id="graph1" class="graph" transform="scale(1 1) rotate(0) translate(4 616)">
<title>snakemake_dag</title>
<polygon fill="white" stroke="white" points="-4,5 -4,-616 458,-616 458,5 -4,5"/>
<!-- 0 -->
<g id="node1" class="node"><title>0</title>
<polyline fill="none" stroke="#d89c56" stroke-width="2" stroke-dasharray="5,2" points="254,-36 224,-36 "/>
<path fill="none" stroke="#d89c56" stroke-width="2" stroke-dasharray="5,2" d="M224,-36C218,-36 212,-30 212,-24"/>
<polyline fill="none" stroke="#d89c56" stroke-width="2" stroke-dasharray="5,2" points="212,-24 212,-12 "/>
<path fill="none" stroke="#d89c56" stroke-width="2" stroke-dasharray="5,2" d="M212,-12C212,-6 218,-0 224,-0"/>
<polyline fill="none" stroke="#d89c56" stroke-width="2" stroke-dasharray="5,2" points="224,-0 254,-0 "/>
<path fill="none" stroke="#d89c56" stroke-width="2" stroke-dasharray="5,2" d="M254,-0C260,-0 266,-6 266,-12"/>
<polyline fill="none" stroke="#d89c56" stroke-width="2" stroke-dasharray="5,2" points="266,-12 266,-24 "/>
<path fill="none" stroke="#d89c56" stroke-width="2" stroke-dasharray="5,2" d="M266,-24C266,-30 260,-36 254,-36"/>
<text text-anchor="middle" x="239" y="-15.5" font-family="sans" font-size="10.00">all</text>
</g>
<!-- 1 -->
<g id="node2" class="node"><title>1</title>
<polyline fill="none" stroke="#d8cb56" stroke-width="2" stroke-dasharray="5,2" points="214.25,-108 117.75,-108 "/>
<path fill="none" stroke="#d8cb56" stroke-width="2" stroke-dasharray="5,2" d="M117.75,-108C111.75,-108 105.75,-102 105.75,-96"/>
<polyline fill="none" stroke="#d8cb56" stroke-width="2" stroke-dasharray="5,2" points="105.75,-96 105.75,-84 "/>
<path fill="none" stroke="#d8cb56" stroke-width="2" stroke-dasharray="5,2" d="M105.75,-84C105.75,-78 111.75,-72 117.75,-72"/>
<polyline fill="none" stroke="#d8cb56" stroke-width="2" stroke-dasharray="5,2" points="117.75,-72 214.25,-72 "/>
<path fill="none" stroke="#d8cb56" stroke-width="2" stroke-dasharray="5,2" d="M214.25,-72C220.25,-72 226.25,-78 226.25,-84"/>
<polyline fill="none" stroke="#d8cb56" stroke-width="2" stroke-dasharray="5,2" points="226.25,-84 226.25,-96 "/>
<path fill="none" stroke="#d8cb56" stroke-width="2" stroke-dasharray="5,2" d="M226.25,-96C226.25,-102 220.25,-108 214.25,-108"/>
<text text-anchor="middle" x="166" y="-87.5" font-family="sans" font-size="10.00">conditional_region_plots</text>
</g>
<!-- 1&#45;&gt;0 -->
<g id="edge2" class="edge"><title>1&#45;&gt;0</title>
<path fill="none" stroke="grey" stroke-width="2" d="M184.045,-71.6966C193.062,-63.0503 204.118,-52.4486 213.943,-43.027"/>
<polygon fill="grey" stroke="grey" points="216.367,-45.5518 221.163,-36.1043 211.522,-40.4993 216.367,-45.5518"/>
</g>
<!-- 2 -->
<g id="node3" class="node"><title>2</title>
<polyline fill="none" stroke="#d8cb56" stroke-width="2" stroke-dasharray="5,2" points="360.25,-108 263.75,-108 "/>
<path fill="none" stroke="#d8cb56" stroke-width="2" stroke-dasharray="5,2" d="M263.75,-108C257.75,-108 251.75,-102 251.75,-96"/>
<polyline fill="none" stroke="#d8cb56" stroke-width="2" stroke-dasharray="5,2" points="251.75,-96 251.75,-84 "/>
<path fill="none" stroke="#d8cb56" stroke-width="2" stroke-dasharray="5,2" d="M251.75,-84C251.75,-78 257.75,-72 263.75,-72"/>
<polyline fill="none" stroke="#d8cb56" stroke-width="2" stroke-dasharray="5,2" points="263.75,-72 360.25,-72 "/>
<path fill="none" stroke="#d8cb56" stroke-width="2" stroke-dasharray="5,2" d="M360.25,-72C366.25,-72 372.25,-78 372.25,-84"/>
<polyline fill="none" stroke="#d8cb56" stroke-width="2" stroke-dasharray="5,2" points="372.25,-84 372.25,-96 "/>
<path fill="none" stroke="#d8cb56" stroke-width="2" stroke-dasharray="5,2" d="M372.25,-96C372.25,-102 366.25,-108 360.25,-108"/>
<text text-anchor="middle" x="312" y="-87.5" font-family="sans" font-size="10.00">conditional_region_plots</text>
</g>
<!-- 2&#45;&gt;0 -->
<g id="edge4" class="edge"><title>2&#45;&gt;0</title>
<path fill="none" stroke="grey" stroke-width="2" d="M293.955,-71.6966C284.938,-63.0503 273.882,-52.4486 264.057,-43.027"/>
<polygon fill="grey" stroke="grey" points="266.478,-40.4993 256.837,-36.1043 261.633,-45.5518 266.478,-40.4993"/>
</g>
<!-- 3 -->
<g id="node4" class="node"><title>3</title>
<polyline fill="none" stroke="#56d86b" stroke-width="2" stroke-dasharray="5,2" points="213.25,-180 92.75,-180 "/>
<path fill="none" stroke="#56d86b" stroke-width="2" stroke-dasharray="5,2" d="M92.75,-180C86.75,-180 80.75,-174 80.75,-168"/>
<polyline fill="none" stroke="#56d86b" stroke-width="2" stroke-dasharray="5,2" points="80.75,-168 80.75,-156 "/>
<path fill="none" stroke="#56d86b" stroke-width="2" stroke-dasharray="5,2" d="M80.75,-156C80.75,-150 86.75,-144 92.75,-144"/>
<polyline fill="none" stroke="#56d86b" stroke-width="2" stroke-dasharray="5,2" points="92.75,-144 213.25,-144 "/>
<path fill="none" stroke="#56d86b" stroke-width="2" stroke-dasharray="5,2" d="M213.25,-144C219.25,-144 225.25,-150 225.25,-156"/>
<polyline fill="none" stroke="#56d86b" stroke-width="2" stroke-dasharray="5,2" points="225.25,-156 225.25,-168 "/>
<path fill="none" stroke="#56d86b" stroke-width="2" stroke-dasharray="5,2" d="M225.25,-168C225.25,-174 219.25,-180 213.25,-180"/>
<text text-anchor="middle" x="153" y="-159.5" font-family="sans" font-size="10.00">conditional_region_plot_setup</text>
</g>
<!-- 3&#45;&gt;1 -->
<g id="edge6" class="edge"><title>3&#45;&gt;1</title>
<path fill="none" stroke="grey" stroke-width="2" d="M156.213,-143.697C157.646,-135.983 159.368,-126.712 160.965,-118.112"/>
<polygon fill="grey" stroke="grey" points="164.439,-118.575 162.823,-108.104 157.556,-117.297 164.439,-118.575"/>
</g>
<!-- 4 -->
<g id="node5" class="node"><title>4</title>
<polyline fill="none" stroke="#56d86b" stroke-width="2" stroke-dasharray="5,2" points="379.25,-180 258.75,-180 "/>
<path fill="none" stroke="#56d86b" stroke-width="2" stroke-dasharray="5,2" d="M258.75,-180C252.75,-180 246.75,-174 246.75,-168"/>
<polyline fill="none" stroke="#56d86b" stroke-width="2" stroke-dasharray="5,2" points="246.75,-168 246.75,-156 "/>
<path fill="none" stroke="#56d86b" stroke-width="2" stroke-dasharray="5,2" d="M246.75,-156C246.75,-150 252.75,-144 258.75,-144"/>
<polyline fill="none" stroke="#56d86b" stroke-width="2" stroke-dasharray="5,2" points="258.75,-144 379.25,-144 "/>
<path fill="none" stroke="#56d86b" stroke-width="2" stroke-dasharray="5,2" d="M379.25,-144C385.25,-144 391.25,-150 391.25,-156"/>
<polyline fill="none" stroke="#56d86b" stroke-width="2" stroke-dasharray="5,2" points="391.25,-156 391.25,-168 "/>
<path fill="none" stroke="#56d86b" stroke-width="2" stroke-dasharray="5,2" d="M391.25,-168C391.25,-174 385.25,-180 379.25,-180"/>
<text text-anchor="middle" x="319" y="-159.5" font-family="sans" font-size="10.00">conditional_region_plot_setup</text>
</g>
<!-- 4&#45;&gt;2 -->
<g id="edge8" class="edge"><title>4&#45;&gt;2</title>
<path fill="none" stroke="grey" stroke-width="2" d="M317.27,-143.697C316.498,-135.983 315.571,-126.712 314.711,-118.112"/>
<polygon fill="grey" stroke="grey" points="318.188,-117.706 313.71,-108.104 311.223,-118.403 318.188,-117.706"/>
</g>
<!-- 5 -->
<g id="node6" class="node"><title>5</title>
<polyline fill="none" stroke="#566bd8" stroke-width="2" stroke-dasharray="5,2" points="210.25,-252 81.75,-252 "/>
<path fill="none" stroke="#566bd8" stroke-width="2" stroke-dasharray="5,2" d="M81.75,-252C75.75,-252 69.75,-246 69.75,-240"/>
<polyline fill="none" stroke="#566bd8" stroke-width="2" stroke-dasharray="5,2" points="69.75,-240 69.75,-228 "/>
<path fill="none" stroke="#566bd8" stroke-width="2" stroke-dasharray="5,2" d="M69.75,-228C69.75,-222 75.75,-216 81.75,-216"/>
<polyline fill="none" stroke="#566bd8" stroke-width="2" stroke-dasharray="5,2" points="81.75,-216 210.25,-216 "/>
<path fill="none" stroke="#566bd8" stroke-width="2" stroke-dasharray="5,2" d="M210.25,-216C216.25,-216 222.25,-222 222.25,-228"/>
<polyline fill="none" stroke="#566bd8" stroke-width="2" stroke-dasharray="5,2" points="222.25,-228 222.25,-240 "/>
<path fill="none" stroke="#566bd8" stroke-width="2" stroke-dasharray="5,2" d="M222.25,-240C222.25,-246 216.25,-252 210.25,-252"/>
<text text-anchor="middle" x="146" y="-231.5" font-family="sans" font-size="10.00">filter_conditional_assoc_results</text>
</g>
<!-- 5&#45;&gt;3 -->
<g id="edge10" class="edge"><title>5&#45;&gt;3</title>
<path fill="none" stroke="grey" stroke-width="2" d="M147.73,-215.697C148.502,-207.983 149.429,-198.712 150.289,-190.112"/>
<polygon fill="grey" stroke="grey" points="153.777,-190.403 151.29,-180.104 146.812,-189.706 153.777,-190.403"/>
</g>
<!-- 6 -->
<g id="node7" class="node"><title>6</title>
<polyline fill="none" stroke="#566bd8" stroke-width="2" stroke-dasharray="5,2" points="387.25,-252 258.75,-252 "/>
<path fill="none" stroke="#566bd8" stroke-width="2" stroke-dasharray="5,2" d="M258.75,-252C252.75,-252 246.75,-246 246.75,-240"/>
<polyline fill="none" stroke="#566bd8" stroke-width="2" stroke-dasharray="5,2" points="246.75,-240 246.75,-228 "/>
<path fill="none" stroke="#566bd8" stroke-width="2" stroke-dasharray="5,2" d="M246.75,-228C246.75,-222 252.75,-216 258.75,-216"/>
<polyline fill="none" stroke="#566bd8" stroke-width="2" stroke-dasharray="5,2" points="258.75,-216 387.25,-216 "/>
<path fill="none" stroke="#566bd8" stroke-width="2" stroke-dasharray="5,2" d="M387.25,-216C393.25,-216 399.25,-222 399.25,-228"/>
<polyline fill="none" stroke="#566bd8" stroke-width="2" stroke-dasharray="5,2" points="399.25,-228 399.25,-240 "/>
<path fill="none" stroke="#566bd8" stroke-width="2" stroke-dasharray="5,2" d="M399.25,-240C399.25,-246 393.25,-252 387.25,-252"/>
<text text-anchor="middle" x="323" y="-231.5" font-family="sans" font-size="10.00">filter_conditional_assoc_results</text>
</g>
<!-- 6&#45;&gt;4 -->
<g id="edge12" class="edge"><title>6&#45;&gt;4</title>
<path fill="none" stroke="grey" stroke-width="2" d="M322.011,-215.697C321.57,-207.983 321.041,-198.712 320.549,-190.112"/>
<polygon fill="grey" stroke="grey" points="324.042,-189.888 319.977,-180.104 317.054,-190.288 324.042,-189.888"/>
</g>
<!-- 7 -->
<g id="node8" class="node"><title>7</title>
<polyline fill="none" stroke="#9fd856" stroke-width="2" stroke-dasharray="5,2" points="174,-324 94,-324 "/>
<path fill="none" stroke="#9fd856" stroke-width="2" stroke-dasharray="5,2" d="M94,-324C88,-324 82,-318 82,-312"/>
<polyline fill="none" stroke="#9fd856" stroke-width="2" stroke-dasharray="5,2" points="82,-312 82,-300 "/>
<path fill="none" stroke="#9fd856" stroke-width="2" stroke-dasharray="5,2" d="M82,-300C82,-294 88,-288 94,-288"/>
<polyline fill="none" stroke="#9fd856" stroke-width="2" stroke-dasharray="5,2" points="94,-288 174,-288 "/>
<path fill="none" stroke="#9fd856" stroke-width="2" stroke-dasharray="5,2" d="M174,-288C180,-288 186,-294 186,-300"/>
<polyline fill="none" stroke="#9fd856" stroke-width="2" stroke-dasharray="5,2" points="186,-300 186,-312 "/>
<path fill="none" stroke="#9fd856" stroke-width="2" stroke-dasharray="5,2" d="M186,-312C186,-318 180,-324 174,-324"/>
<text text-anchor="middle" x="134" y="-303.5" font-family="sans" font-size="10.00">conditional_analysis</text>
</g>
<!-- 7&#45;&gt;5 -->
<g id="edge14" class="edge"><title>7&#45;&gt;5</title>
<path fill="none" stroke="grey" stroke-width="2" d="M136.966,-287.697C138.289,-279.983 139.878,-270.712 141.352,-262.112"/>
<polygon fill="grey" stroke="grey" points="144.828,-262.552 143.068,-252.104 137.928,-261.369 144.828,-262.552"/>
</g>
<!-- 8 -->
<g id="node9" class="node"><title>8</title>
<polyline fill="none" stroke="#9fd856" stroke-width="2" stroke-dasharray="5,2" points="388,-324 308,-324 "/>
<path fill="none" stroke="#9fd856" stroke-width="2" stroke-dasharray="5,2" d="M308,-324C302,-324 296,-318 296,-312"/>
<polyline fill="none" stroke="#9fd856" stroke-width="2" stroke-dasharray="5,2" points="296,-312 296,-300 "/>
<path fill="none" stroke="#9fd856" stroke-width="2" stroke-dasharray="5,2" d="M296,-300C296,-294 302,-288 308,-288"/>
<polyline fill="none" stroke="#9fd856" stroke-width="2" stroke-dasharray="5,2" points="308,-288 388,-288 "/>
<path fill="none" stroke="#9fd856" stroke-width="2" stroke-dasharray="5,2" d="M388,-288C394,-288 400,-294 400,-300"/>
<polyline fill="none" stroke="#9fd856" stroke-width="2" stroke-dasharray="5,2" points="400,-300 400,-312 "/>
<path fill="none" stroke="#9fd856" stroke-width="2" stroke-dasharray="5,2" d="M400,-312C400,-318 394,-324 388,-324"/>
<text text-anchor="middle" x="348" y="-303.5" font-family="sans" font-size="10.00">conditional_analysis</text>
</g>
<!-- 8&#45;&gt;6 -->
<g id="edge16" class="edge"><title>8&#45;&gt;6</title>
<path fill="none" stroke="grey" stroke-width="2" d="M341.82,-287.697C339.005,-279.813 335.609,-270.304 332.481,-261.546"/>
<polygon fill="grey" stroke="grey" points="335.768,-260.345 329.109,-252.104 329.176,-262.699 335.768,-260.345"/>
</g>
<!-- 9 -->
<g id="node10" class="node"><title>9</title>
<polyline fill="none" stroke="#d8b456" stroke-width="2" stroke-dasharray="5,2" points="90.25,-396 11.75,-396 "/>
<path fill="none" stroke="#d8b456" stroke-width="2" stroke-dasharray="5,2" d="M11.75,-396C5.75,-396 -0.25,-390 -0.25,-384"/>
<polyline fill="none" stroke="#d8b456" stroke-width="2" stroke-dasharray="5,2" points="-0.25,-384 -0.25,-372 "/>
<path fill="none" stroke="#d8b456" stroke-width="2" stroke-dasharray="5,2" d="M-0.25,-372C-0.25,-366 5.75,-360 11.75,-360"/>
<polyline fill="none" stroke="#d8b456" stroke-width="2" stroke-dasharray="5,2" points="11.75,-360 90.25,-360 "/>
<path fill="none" stroke="#d8b456" stroke-width="2" stroke-dasharray="5,2" d="M90.25,-360C96.25,-360 102.25,-366 102.25,-372"/>
<polyline fill="none" stroke="#d8b456" stroke-width="2" stroke-dasharray="5,2" points="102.25,-372 102.25,-384 "/>
<path fill="none" stroke="#d8b456" stroke-width="2" stroke-dasharray="5,2" d="M102.25,-384C102.25,-390 96.25,-396 90.25,-396"/>
<text text-anchor="middle" x="51" y="-381" font-family="sans" font-size="10.00">make_condition_list</text>
<text text-anchor="middle" x="51" y="-370" font-family="sans" font-size="10.00">variants: rs7544145</text>
</g>
<!-- 9&#45;&gt;7 -->
<g id="edge18" class="edge"><title>9&#45;&gt;7</title>
<path fill="none" stroke="grey" stroke-width="2" d="M71.5169,-359.697C81.8695,-350.965 94.5863,-340.24 105.839,-330.75"/>
<polygon fill="grey" stroke="grey" points="108.331,-333.227 113.719,-324.104 103.818,-327.876 108.331,-333.227"/>
</g>
<!-- 10 -->
<g id="node11" class="node"><title>10</title>
<polyline fill="none" stroke="#56d8b1" stroke-width="2" stroke-dasharray="5,2" points="256.25,-396 171.75,-396 "/>
<path fill="none" stroke="#56d8b1" stroke-width="2" stroke-dasharray="5,2" d="M171.75,-396C165.75,-396 159.75,-390 159.75,-384"/>
<polyline fill="none" stroke="#56d8b1" stroke-width="2" stroke-dasharray="5,2" points="159.75,-384 159.75,-372 "/>
<path fill="none" stroke="#56d8b1" stroke-width="2" stroke-dasharray="5,2" d="M159.75,-372C159.75,-366 165.75,-360 171.75,-360"/>
<polyline fill="none" stroke="#56d8b1" stroke-width="2" stroke-dasharray="5,2" points="171.75,-360 256.25,-360 "/>
<path fill="none" stroke="#56d8b1" stroke-width="2" stroke-dasharray="5,2" d="M256.25,-360C262.25,-360 268.25,-366 268.25,-372"/>
<polyline fill="none" stroke="#56d8b1" stroke-width="2" stroke-dasharray="5,2" points="268.25,-372 268.25,-384 "/>
<path fill="none" stroke="#56d8b1" stroke-width="2" stroke-dasharray="5,2" d="M268.25,-384C268.25,-390 262.25,-396 256.25,-396"/>
<text text-anchor="middle" x="214" y="-375.5" font-family="sans" font-size="10.00">keep_covar_samples</text>
</g>
<!-- 10&#45;&gt;7 -->
<g id="edge20" class="edge"><title>10&#45;&gt;7</title>
<path fill="none" stroke="grey" stroke-width="2" d="M194.225,-359.697C184.246,-350.965 171.989,-340.24 161.143,-330.75"/>
<polygon fill="grey" stroke="grey" points="163.378,-328.055 153.548,-324.104 158.769,-333.323 163.378,-328.055"/>
</g>
<!-- 10&#45;&gt;8 -->
<g id="edge26" class="edge"><title>10&#45;&gt;8</title>
<path fill="none" stroke="grey" stroke-width="2" d="M246.78,-359.876C264.625,-350.554 286.897,-338.919 306.003,-328.939"/>
<polygon fill="grey" stroke="grey" points="307.851,-331.922 315.094,-324.19 304.61,-325.718 307.851,-331.922"/>
</g>
<!-- 11 -->
<g id="node12" class="node"><title>11</title>
<polyline fill="none" stroke="#d86e56" stroke-width="2" stroke-dasharray="5,2" points="212,-468 132,-468 "/>
<path fill="none" stroke="#d86e56" stroke-width="2" stroke-dasharray="5,2" d="M132,-468C126,-468 120,-462 120,-456"/>
<polyline fill="none" stroke="#d86e56" stroke-width="2" stroke-dasharray="5,2" points="120,-456 120,-444 "/>
<path fill="none" stroke="#d86e56" stroke-width="2" stroke-dasharray="5,2" d="M120,-444C120,-438 126,-432 132,-432"/>
<polyline fill="none" stroke="#d86e56" stroke-width="2" stroke-dasharray="5,2" points="132,-432 212,-432 "/>
<path fill="none" stroke="#d86e56" stroke-width="2" stroke-dasharray="5,2" d="M212,-432C218,-432 224,-438 224,-444"/>
<polyline fill="none" stroke="#d86e56" stroke-width="2" stroke-dasharray="5,2" points="224,-444 224,-456 "/>
<path fill="none" stroke="#d86e56" stroke-width="2" stroke-dasharray="5,2" d="M224,-456C224,-462 218,-468 212,-468"/>
<text text-anchor="middle" x="172" y="-447.5" font-family="sans" font-size="10.00">make_covariate_file</text>
</g>
<!-- 11&#45;&gt;7 -->
<g id="edge22" class="edge"><title>11&#45;&gt;7</title>
<path fill="none" stroke="grey" stroke-width="2" d="M163.695,-431.677C159.093,-421.485 153.593,-408.235 150,-396 144.037,-375.697 139.918,-352.101 137.354,-334.308"/>
<polygon fill="grey" stroke="grey" points="140.81,-333.751 135.989,-324.316 133.875,-334.698 140.81,-333.751"/>
</g>
<!-- 11&#45;&gt;8 -->
<g id="edge28" class="edge"><title>11&#45;&gt;8</title>
<path fill="none" stroke="grey" stroke-width="2" d="M224.166,-434.139C227.148,-433.39 230.109,-432.671 233,-432 275.499,-422.134 398.121,-429.56 426,-396 436.224,-383.693 433.487,-374.14 426,-360 419.403,-347.542 408.421,-337.469 396.748,-329.586"/>
<polygon fill="grey" stroke="grey" points="398.515,-326.562 388.18,-324.229 394.805,-332.498 398.515,-326.562"/>
</g>
<!-- 11&#45;&gt;10 -->
<g id="edge32" class="edge"><title>11&#45;&gt;10</title>
<path fill="none" stroke="grey" stroke-width="2" d="M182.382,-431.697C187.265,-423.559 193.187,-413.689 198.579,-404.701"/>
<polygon fill="grey" stroke="grey" points="201.594,-406.48 203.737,-396.104 195.591,-402.879 201.594,-406.48"/>
</g>
<!-- 12 -->
<g id="node13" class="node"><title>12</title>
<polyline fill="none" stroke="#d8b456" stroke-width="2" stroke-dasharray="5,2" points="405.25,-396 298.75,-396 "/>
<path fill="none" stroke="#d8b456" stroke-width="2" stroke-dasharray="5,2" d="M298.75,-396C292.75,-396 286.75,-390 286.75,-384"/>
<polyline fill="none" stroke="#d8b456" stroke-width="2" stroke-dasharray="5,2" points="286.75,-384 286.75,-372 "/>
<path fill="none" stroke="#d8b456" stroke-width="2" stroke-dasharray="5,2" d="M286.75,-372C286.75,-366 292.75,-360 298.75,-360"/>
<polyline fill="none" stroke="#d8b456" stroke-width="2" stroke-dasharray="5,2" points="298.75,-360 405.25,-360 "/>
<path fill="none" stroke="#d8b456" stroke-width="2" stroke-dasharray="5,2" d="M405.25,-360C411.25,-360 417.25,-366 417.25,-372"/>
<polyline fill="none" stroke="#d8b456" stroke-width="2" stroke-dasharray="5,2" points="417.25,-372 417.25,-384 "/>
<path fill="none" stroke="#d8b456" stroke-width="2" stroke-dasharray="5,2" d="M417.25,-384C417.25,-390 411.25,-396 405.25,-396"/>
<text text-anchor="middle" x="352" y="-381" font-family="sans" font-size="10.00">make_condition_list</text>
<text text-anchor="middle" x="352" y="-370" font-family="sans" font-size="10.00">variants: chr2_97376407_I</text>
</g>
<!-- 12&#45;&gt;8 -->
<g id="edge24" class="edge"><title>12&#45;&gt;8</title>
<path fill="none" stroke="grey" stroke-width="2" d="M351.011,-359.697C350.57,-351.983 350.041,-342.712 349.549,-334.112"/>
<polygon fill="grey" stroke="grey" points="353.042,-333.888 348.977,-324.104 346.054,-334.288 353.042,-333.888"/>
</g>
<!-- 13 -->
<g id="node14" class="node"><title>13</title>
<polyline fill="none" stroke="#59d856" stroke-width="2" stroke-dasharray="5,2" points="284,-468 254,-468 "/>
<path fill="none" stroke="#59d856" stroke-width="2" stroke-dasharray="5,2" d="M254,-468C248,-468 242,-462 242,-456"/>
<polyline fill="none" stroke="#59d856" stroke-width="2" stroke-dasharray="5,2" points="242,-456 242,-444 "/>
<path fill="none" stroke="#59d856" stroke-width="2" stroke-dasharray="5,2" d="M242,-444C242,-438 248,-432 254,-432"/>
<polyline fill="none" stroke="#59d856" stroke-width="2" stroke-dasharray="5,2" points="254,-432 284,-432 "/>
<path fill="none" stroke="#59d856" stroke-width="2" stroke-dasharray="5,2" d="M284,-432C290,-432 296,-438 296,-444"/>
<polyline fill="none" stroke="#59d856" stroke-width="2" stroke-dasharray="5,2" points="296,-444 296,-456 "/>
<path fill="none" stroke="#59d856" stroke-width="2" stroke-dasharray="5,2" d="M296,-456C296,-462 290,-468 284,-468"/>
<text text-anchor="middle" x="269" y="-447.5" font-family="sans" font-size="10.00">merge</text>
</g>
<!-- 13&#45;&gt;10 -->
<g id="edge30" class="edge"><title>13&#45;&gt;10</title>
<path fill="none" stroke="grey" stroke-width="2" d="M255.404,-431.697C248.877,-423.389 240.932,-413.277 233.753,-404.141"/>
<polygon fill="grey" stroke="grey" points="236.369,-401.805 227.439,-396.104 230.865,-406.13 236.369,-401.805"/>
</g>
<!-- 14 -->
<g id="node15" class="node"><title>14</title>
<polyline fill="none" stroke="#5682d8" stroke-width="2" stroke-dasharray="5,2" points="248.25,-540 97.75,-540 "/>
<path fill="none" stroke="#5682d8" stroke-width="2" stroke-dasharray="5,2" d="M97.75,-540C91.75,-540 85.75,-534 85.75,-528"/>
<polyline fill="none" stroke="#5682d8" stroke-width="2" stroke-dasharray="5,2" points="85.75,-528 85.75,-516 "/>
<path fill="none" stroke="#5682d8" stroke-width="2" stroke-dasharray="5,2" d="M85.75,-516C85.75,-510 91.75,-504 97.75,-504"/>
<polyline fill="none" stroke="#5682d8" stroke-width="2" stroke-dasharray="5,2" points="97.75,-504 248.25,-504 "/>
<path fill="none" stroke="#5682d8" stroke-width="2" stroke-dasharray="5,2" d="M248.25,-504C254.25,-504 260.25,-510 260.25,-516"/>
<polyline fill="none" stroke="#5682d8" stroke-width="2" stroke-dasharray="5,2" points="260.25,-516 260.25,-528 "/>
<path fill="none" stroke="#5682d8" stroke-width="2" stroke-dasharray="5,2" d="M260.25,-528C260.25,-534 254.25,-540 248.25,-540"/>
<text text-anchor="middle" x="173" y="-525" font-family="sans" font-size="10.00">extract_variants</text>
<text text-anchor="middle" x="173" y="-514" font-family="sans" font-size="10.00">study_root: bip_bmg2_eur_sr&#45;qc.bgn</text>
</g>
<!-- 14&#45;&gt;13 -->
<g id="edge34" class="edge"><title>14&#45;&gt;13</title>
<path fill="none" stroke="grey" stroke-width="2" d="M196.73,-503.697C208.937,-494.796 223.985,-483.823 237.184,-474.199"/>
<polygon fill="grey" stroke="grey" points="239.525,-476.824 245.543,-468.104 235.4,-471.168 239.525,-476.824"/>
</g>
<!-- 15 -->
<g id="node16" class="node"><title>15</title>
<polyline fill="none" stroke="#5682d8" stroke-width="2" stroke-dasharray="5,2" points="441.25,-540 290.75,-540 "/>
<path fill="none" stroke="#5682d8" stroke-width="2" stroke-dasharray="5,2" d="M290.75,-540C284.75,-540 278.75,-534 278.75,-528"/>
<polyline fill="none" stroke="#5682d8" stroke-width="2" stroke-dasharray="5,2" points="278.75,-528 278.75,-516 "/>
<path fill="none" stroke="#5682d8" stroke-width="2" stroke-dasharray="5,2" d="M278.75,-516C278.75,-510 284.75,-504 290.75,-504"/>
<polyline fill="none" stroke="#5682d8" stroke-width="2" stroke-dasharray="5,2" points="290.75,-504 441.25,-504 "/>
<path fill="none" stroke="#5682d8" stroke-width="2" stroke-dasharray="5,2" d="M441.25,-504C447.25,-504 453.25,-510 453.25,-516"/>
<polyline fill="none" stroke="#5682d8" stroke-width="2" stroke-dasharray="5,2" points="453.25,-516 453.25,-528 "/>
<path fill="none" stroke="#5682d8" stroke-width="2" stroke-dasharray="5,2" d="M453.25,-528C453.25,-534 447.25,-540 441.25,-540"/>
<text text-anchor="middle" x="366" y="-525" font-family="sans" font-size="10.00">extract_variants</text>
<text text-anchor="middle" x="366" y="-514" font-family="sans" font-size="10.00">study_root: bip_may1_eur_sr&#45;qc.bgn</text>
</g>
<!-- 15&#45;&gt;13 -->
<g id="edge36" class="edge"><title>15&#45;&gt;13</title>
<path fill="none" stroke="grey" stroke-width="2" d="M342.022,-503.697C329.689,-494.796 314.484,-483.823 301.147,-474.199"/>
<polygon fill="grey" stroke="grey" points="302.859,-471.118 292.702,-468.104 298.763,-476.794 302.859,-471.118"/>
</g>
<!-- 16 -->
<g id="node17" class="node"><title>16</title>
<polyline fill="none" stroke="#56d89a" stroke-width="2" stroke-dasharray="5,2" points="304.25,-612 233.75,-612 "/>
<path fill="none" stroke="#56d89a" stroke-width="2" stroke-dasharray="5,2" d="M233.75,-612C227.75,-612 221.75,-606 221.75,-600"/>
<polyline fill="none" stroke="#56d89a" stroke-width="2" stroke-dasharray="5,2" points="221.75,-600 221.75,-588 "/>
<path fill="none" stroke="#56d89a" stroke-width="2" stroke-dasharray="5,2" d="M221.75,-588C221.75,-582 227.75,-576 233.75,-576"/>
<polyline fill="none" stroke="#56d89a" stroke-width="2" stroke-dasharray="5,2" points="233.75,-576 304.25,-576 "/>
<path fill="none" stroke="#56d89a" stroke-width="2" stroke-dasharray="5,2" d="M304.25,-576C310.25,-576 316.25,-582 316.25,-588"/>
<polyline fill="none" stroke="#56d89a" stroke-width="2" stroke-dasharray="5,2" points="316.25,-588 316.25,-600 "/>
<path fill="none" stroke="#56d89a" stroke-width="2" stroke-dasharray="5,2" d="M316.25,-600C316.25,-606 310.25,-612 304.25,-612"/>
<text text-anchor="middle" x="269" y="-591.5" font-family="sans" font-size="10.00">make_regions_file</text>
</g>
<!-- 16&#45;&gt;14 -->
<g id="edge38" class="edge"><title>16&#45;&gt;14</title>
<path fill="none" stroke="grey" stroke-width="2" d="M245.27,-575.697C233.063,-566.796 218.015,-555.823 204.816,-546.199"/>
<polygon fill="grey" stroke="grey" points="206.6,-543.168 196.457,-540.104 202.475,-548.824 206.6,-543.168"/>
</g>
<!-- 16&#45;&gt;15 -->
<g id="edge40" class="edge"><title>16&#45;&gt;15</title>
<path fill="none" stroke="grey" stroke-width="2" d="M292.978,-575.697C305.311,-566.796 320.516,-555.823 333.853,-546.199"/>
<polygon fill="grey" stroke="grey" points="336.237,-548.794 342.298,-540.104 332.141,-543.118 336.237,-548.794"/>
</g>
</g>
</svg>
